<?xml version="1.0" encoding="UTF-8"?>
<svg id="Layer_1" data-name="Layer 1" xmlns="http://www.w3.org/2000/svg" viewBox="0 0 150 150">
  <defs>
    <style>
      .cls-1 {
        fill: #505f79;
      }
    </style>
  </defs>
  <path class="cls-1" d="M85.74,130.53c-30.84,0-55-17.57-55-40s24.16-40,55-40,55,17.57,55,40c0,5.85-1.63,11.45-4.84,16.65-1.08,1.74-1.23,3.85-.42,5.67l2.89,6.48c.97,2.18,.78,4.66-.51,6.65-1.31,2.01-3.49,3.21-5.85,3.21h0c-.65,0-1.31-.09-1.95-.28l-13.16-3.74c-.54-.15-1.09-.23-1.64-.23-.77,0-1.52,.15-2.22,.44-8.22,3.38-17.66,5.16-27.29,5.16Zm0-68c-23.71,0-43,12.56-43,28s19.29,28,43,28c9.18,0,17.95-1.88,25.36-5.43,1.06-.51,2.24-.77,3.42-.77,.74,0,1.48,.1,2.19,.31l6.34,1.8-.88-1.98c-1.26-2.83-.78-6.09,1.26-8.5,3.48-4.11,5.32-8.75,5.32-13.42,0-15.44-19.29-28-43-28Z"/>
  <path class="cls-1" d="M76.8,110.75c-1.63,0-3.14-.62-4.27-1.75l-.1-.1-.13-.17-10.33-10.33c-1.19-1.19-1.83-2.85-1.74-4.55,.09-1.72,.87-3.26,2.2-4.35,1.04-.85,2.32-1.3,3.69-1.3,1.67,0,3.31,.68,4.5,1.88l6.17,6.18,24.06-24.06c1.19-1.19,2.83-1.88,4.5-1.88,1.38,0,2.65,.45,3.69,1.3,1.33,1.09,2.11,2.63,2.2,4.35,.09,1.69-.55,3.35-1.74,4.55l-28.19,28.19-.12,.16-.09,.1c-1.14,1.16-2.67,1.8-4.28,1.8h-.02Z"/>
  <path class="cls-1" d="M17.24,77.58c-2.69,0-5.19-1.37-6.68-3.67-1.5-2.3-1.71-5.07-.58-7.6l3.06-6.85c.64-1.44,.68-3.07,.12-4.6-.94-2.54-1.42-5.19-1.42-7.88,0-15.42,15.37-27.5,35-27.5s35,12.08,35,27.5c0,5.79-2.18,11.3-6.29,15.93l-.46,.52-.68,.12c-9.14,1.65-17.33,5.32-23.05,10.32l-.5,.44-.67,.05c-1.14,.08-2.26,.12-3.34,.12-3.6,0-7.13-.41-10.49-1.23-.41-.1-.84-.15-1.28-.15-.55,0-1.1,.08-1.65,.24l-13.84,3.93c-.74,.21-1.49,.31-2.23,.31ZM46.74,31.47c-12.68,0-23,6.95-23,15.5,0,2.1,.63,4.14,1.86,6.07,1.27,1.99,1.46,4.46,.5,6.61l-1.66,3.72,8.56-2.43c.63-.18,1.28-.27,1.93-.27,.7,0,1.39,.11,2.04,.32,3.07,.98,6.36,1.48,9.77,1.48,12.68,0,23-6.95,23-15.5s-10.32-15.5-23-15.5Z"/>
</svg>