<?xml version="1.0" encoding="UTF-8"?>
<svg id="Layer_1" data-name="Layer 1" xmlns="http://www.w3.org/2000/svg" viewBox="0 0 150 150">
  <defs>
    <style>
      .cls-1 {
        fill: #505f79;
      }
    </style>
  </defs>
  <path class="cls-1" d="M75,111c-14.34,0-26-11.66-26-26V52.5c0-7.44,7.18-13.5,16-13.5s16,6.06,16,13.5v33.1c0,3.36-2.64,6-6,6s-6-2.64-6-6v-30.7c0-2.15-1.75-3.9-3.9-3.9s-4.1,1.83-4.1,4v30c0,7.72,6.28,14,14,14s14-6.28,14-14v-21.9c0-3.36,2.64-6,6-6s6,2.64,6,6v21.9c0,14.34-11.66,26-26,26Z"/>
  <path class="cls-1" d="M74.55,145.75c-1.17,0-2.22-.15-3.12-.45-9.1-2.73-31.96-11.93-47.15-38.15-5.7-9.87-9.43-36.29-10.23-72.48-.11-5.22,3.46-9.81,8.49-10.9,9.47-2.13,32.92-8.1,45.93-17.44,2.09-1.39,4.26-2.09,6.48-2.09s4.57,.74,6.48,2.08c12.97,9.31,36.52,15.3,46.04,17.44,5.13,1.23,8.7,5.82,8.48,10.92-.5,36.13-4.27,62.56-10.35,72.48-15,24.29-38.09,34.61-47.31,37.92-1.22,.44-2.44,.66-3.74,.66Zm.4-128.2c-.63,0-1.11,.15-1.62,.51-11.15,8.03-29.4,13.54-42.75,16.76-2.4,.6-4.02,2.69-3.93,5.09,.8,30.84,3.84,52.97,8.36,60.73,12.55,21.64,31.4,29.27,38.93,31.55l.17,.04c.27,.07,.44,.12,.64,.12,.36,0,.66-.07,1-.16,7.79-2.9,27.09-11.76,39.35-31.57,4.75-7.81,7.75-29.97,8.25-60.79,0-2.4-1.58-4.42-3.94-5.01-13.41-3.23-31.73-8.76-42.84-16.76-.52-.43-1.16-.51-1.62-.51Z"/>
</svg>