<?xml version="1.0" encoding="UTF-8"?>
<svg id="Layer_1" data-name="Layer 1" xmlns="http://www.w3.org/2000/svg" viewBox="0 0 150 150">
  <defs>
    <style>
      .cls-1 {
        fill: #505f79;
      }
    </style>
  </defs>
  <path class="cls-1" d="M71.42,137.32c-36.77,0-66.69-29.92-66.69-66.69S34.64,3.94,71.42,3.94s66.69,29.92,66.69,66.69-29.92,66.69-66.69,66.69Zm0-121.39c-30.16,0-54.7,24.54-54.7,54.7s24.54,54.7,54.7,54.7,54.7-24.54,54.7-54.7S101.58,15.93,71.42,15.93Z"/>
  <path class="cls-1" d="M141.87,146.06c-1.32,0-2.57-.52-3.5-1.45l-14.75-14.75c-1.93-1.93-1.93-5.07,0-7l1.48-1.48c.94-.94,2.18-1.45,3.5-1.45s2.57,.51,3.5,1.45l14.75,14.75c.94,.94,1.45,2.18,1.45,3.5s-.51,2.57-1.45,3.5l-1.48,1.48c-.94,.94-2.18,1.45-3.5,1.45Z"/>
  <g>
    <path class="cls-1" d="M33.23,95.57l-.11-.86c-.15-1.12-.22-2.24-.22-3.34,0-9.7,5.5-17.59,12.25-17.59,3.52,0,6.87,2.17,9.19,5.96l.3,.48-.27,.5c-2.2,4.09-3.78,8.94-4.58,14.02l-.13,.84h-16.43Z"/>
    <path class="cls-1" d="M54.72,100.74l.07-1.05c.82-12.6,7.7-26.1,16.63-26.1s15.81,13.49,16.63,26.1l.07,1.05H54.72Z"/>
    <path class="cls-1" d="M45.14,71c-4.69,0-8.5-3.81-8.5-8.5s3.81-8.5,8.5-8.5,8.5,3.81,8.5,8.5-3.81,8.5-8.5,8.5Z"/>
    <path class="cls-1" d="M71.42,69.75c-6.76,0-12.25-5.5-12.25-12.25s5.5-12.25,12.25-12.25,12.25,5.5,12.25,12.25-5.5,12.25-12.25,12.25Z"/>
    <path class="cls-1" d="M97.7,71c-4.69,0-8.5-3.81-8.5-8.5s3.81-8.5,8.5-8.5,8.5,3.81,8.5,8.5-3.81,8.5-8.5,8.5Z"/>
    <path class="cls-1" d="M93.19,95.57l-.13-.84c-.8-5.08-2.38-9.93-4.57-14.02l-.27-.5,.3-.48c2.32-3.79,5.67-5.96,9.19-5.96,6.76,0,12.25,7.89,12.25,17.59,0,1.1-.08,2.23-.22,3.34l-.11,.86h-16.43Z"/>
  </g>
</svg>